<?xml version="1.0" encoding="utf-8"?>
<!-- Generator: Adobe Illustrator 22.0.1, SVG Export Plug-In . SVG Version: 6.00 Build 0)  -->
<svg version="1.1" id="图层_1" xmlns="http://www.w3.org/2000/svg" xmlns:xlink="http://www.w3.org/1999/xlink" x="0px" y="0px"
	 viewBox="0 0 1080 1080" style="enable-background:new 0 0 1080 1080;" xml:space="preserve">
<style type="text/css">
	.st0{fill:#E8EAEE;}
	.st1{clip-path:url(#SVGID_2_);}
	.st2{fill:#DACDAF;}
	.st3{fill:#E0D4BF;}
	.st4{fill:#E9E1CE;}
	.st5{fill:#7A7F87;}
</style>
<path class="st0" d="M539.4,42C258.4,42,41,263.1,41,540.4c0,179.9,93.7,337.2,236.1,427.2c74.9,48.7,164.9,74.9,262.3,74.9
	s187.4-26.2,262.3-74.9c142.4-86.2,236.1-247.3,236.1-427.2C1037.8,263.1,816.7,42,539.4,42L539.4,42z"/>
<g>
	<defs>
		<path id="SVGID_1_" d="M539.4,42C258.4,42,41,263.1,41,540.4c0,179.9,93.7,337.2,236.1,427.2c74.9,48.7,164.9,74.9,262.3,74.9
			s187.4-26.2,262.3-74.9c142.4-86.2,236.1-247.3,236.1-427.2C1037.8,263.1,816.7,42,539.4,42L539.4,42z"/>
	</defs>
	<clipPath id="SVGID_2_">
		<use xlink:href="#SVGID_1_"  style="overflow:visible;"/>
	</clipPath>
	<g class="st1">
		<path class="st2" d="M584.4,781.5c0-33.7,7.5-60,7.5-60h-105c0,0,7.5,22.5,7.5,60c0,26.2-26.2,52.5-67.4,52.5v67.4h224.8V834
			C610.6,833.9,584.4,807.7,584.4,781.5L584.4,781.5z"/>
		<path class="st3" d="M307.1,489.2c-22.5,3.7-37.5,37.5-30,71.2c3.8,33.7,26.2,60,48.7,56.2s37.5-37.5,30-71.2
			C352,507.9,329.6,485.5,307.1,489.2L307.1,489.2z M768,489.2c-22.5-3.8-45,18.7-48.7,56.2c-3.8,33.7,7.5,67.4,30,71.2
			c22.5,3.7,45-18.7,48.7-56.2C801.7,526.7,786.7,493,768,489.2L768,489.2z"/>
		<path class="st4" d="M539.4,208.2c-168.6,0-243.6,116.2-228.6,258.5c0,15,3.8,30,7.5,48.7C344.6,642.8,427,774,539.4,774
			s194.9-131.2,221.1-258.6c3.7-15,3.7-33.7,3.7-48.7C783,324.3,708,208.2,539.4,208.2L539.4,208.2z"/>
		<path class="st5" d="M764.2,466.7c0,15-3.7,30-7.5,48.7c-15-52.5-41.2-89.9-67.4-112.4c-37.5,33.7-93.7,52.5-149.9,52.5
			c-59.9,0-116.2-22.5-153.6-56.2c-26.2,22.5-56.2,60-71.2,116.2c-3.8-15-7.5-33.7-7.5-48.7c-15-142.4,60-258.5,228.6-258.5
			S783,324.3,764.2,466.7L764.2,466.7z M539.4,1055c-104.9,0-281-86.2-281-86.2c0-74.9,60-134.9,138.6-134.9h30v3.7
			c0,30,52.5,56.2,112.4,56.2c63.7,0,112.4-26.2,112.4-56.2v-3.7h30c74.9,0,138.6,59.9,138.6,134.9
			C820.4,968.8,644.3,1055,539.4,1055L539.4,1055z"/>
	</g>
</g>
</svg>
